<mxfile host="app.diagrams.net" modified="2023-11-23T17:54:54.831Z" agent="Mozilla/5.0 (Windows NT 10.0; Win64; x64) AppleWebKit/537.36 (KHTML, like Gecko) Chrome/119.0.0.0 Safari/537.36" etag="jfKjuT96FUXzyakJtuwm" version="22.1.3" type="device">
  <diagram id="C5RBs43oDa-KdzZeNtuy" name="Page-1">
    <mxGraphModel dx="2068" dy="864" grid="1" gridSize="10" guides="1" tooltips="1" connect="1" arrows="1" fold="1" page="1" pageScale="1" pageWidth="827" pageHeight="1169" math="0" shadow="0">
      <root>
        <mxCell id="WIyWlLk6GJQsqaUBKTNV-0" />
        <mxCell id="WIyWlLk6GJQsqaUBKTNV-1" parent="WIyWlLk6GJQsqaUBKTNV-0" />
        <mxCell id="mI4eKcFdx7r7xV4IZFu3-77" value="" style="shape=parallelogram;perimeter=parallelogramPerimeter;whiteSpace=wrap;html=1;fixedSize=1;" parent="WIyWlLk6GJQsqaUBKTNV-1" vertex="1">
          <mxGeometry x="100" y="1175" width="120" height="60" as="geometry" />
        </mxCell>
        <mxCell id="mI4eKcFdx7r7xV4IZFu3-76" value="" style="shape=parallelogram;perimeter=parallelogramPerimeter;whiteSpace=wrap;html=1;fixedSize=1;" parent="WIyWlLk6GJQsqaUBKTNV-1" vertex="1">
          <mxGeometry x="106.25" y="660" width="120" height="60" as="geometry" />
        </mxCell>
        <object label="" id="mI4eKcFdx7r7xV4IZFu3-0">
          <mxCell style="ellipse;whiteSpace=wrap;html=1;fillColor=none;" parent="WIyWlLk6GJQsqaUBKTNV-1" vertex="1">
            <mxGeometry x="90" y="100" width="150" height="80" as="geometry" />
          </mxCell>
        </object>
        <mxCell id="mI4eKcFdx7r7xV4IZFu3-1" value="&lt;font style=&quot;font-size: 20px;&quot;&gt;Н&lt;/font&gt;" style="text;html=1;strokeColor=none;fillColor=none;align=center;verticalAlign=middle;whiteSpace=wrap;rounded=0;" parent="WIyWlLk6GJQsqaUBKTNV-1" vertex="1">
          <mxGeometry x="132.5" y="122.5" width="65" height="35" as="geometry" />
        </mxCell>
        <mxCell id="mI4eKcFdx7r7xV4IZFu3-4" value="&lt;font style=&quot;font-size: 20px;&quot;&gt;Ввод n&lt;/font&gt;" style="shape=parallelogram;perimeter=parallelogramPerimeter;whiteSpace=wrap;html=1;fixedSize=1;" parent="WIyWlLk6GJQsqaUBKTNV-1" vertex="1">
          <mxGeometry x="100" y="340" width="120" height="60" as="geometry" />
        </mxCell>
        <mxCell id="mI4eKcFdx7r7xV4IZFu3-8" value="" style="rhombus;whiteSpace=wrap;html=1;" parent="WIyWlLk6GJQsqaUBKTNV-1" vertex="1">
          <mxGeometry x="100" y="460" width="120" height="120" as="geometry" />
        </mxCell>
        <mxCell id="mI4eKcFdx7r7xV4IZFu3-9" value="&lt;span style=&quot;font-size: 20px;&quot;&gt;Cin.fail()&lt;br&gt;n&amp;lt;=0&lt;br&gt;n&amp;gt;100&lt;br&gt;&lt;/span&gt;" style="text;html=1;strokeColor=none;fillColor=none;align=center;verticalAlign=middle;whiteSpace=wrap;rounded=0;" parent="WIyWlLk6GJQsqaUBKTNV-1" vertex="1">
          <mxGeometry x="95" y="477.5" width="130" height="85" as="geometry" />
        </mxCell>
        <mxCell id="mI4eKcFdx7r7xV4IZFu3-14" value="" style="endArrow=classic;html=1;rounded=0;entryX=0;entryY=0.5;entryDx=0;entryDy=0;" parent="WIyWlLk6GJQsqaUBKTNV-1" edge="1" target="mI4eKcFdx7r7xV4IZFu3-69">
          <mxGeometry width="50" height="50" relative="1" as="geometry">
            <mxPoint x="220" y="520" as="sourcePoint" />
            <mxPoint x="360" y="570" as="targetPoint" />
            <Array as="points">
              <mxPoint x="295" y="520" />
              <mxPoint x="360" y="520" />
              <mxPoint x="360" y="890" />
            </Array>
          </mxGeometry>
        </mxCell>
        <mxCell id="mI4eKcFdx7r7xV4IZFu3-15" value="" style="rounded=0;whiteSpace=wrap;html=1;" parent="WIyWlLk6GJQsqaUBKTNV-1" vertex="1">
          <mxGeometry x="100" y="795" width="120" height="60" as="geometry" />
        </mxCell>
        <mxCell id="mI4eKcFdx7r7xV4IZFu3-16" value="&lt;font style=&quot;font-size: 20px;&quot;&gt;i = 0&lt;/font&gt;" style="text;html=1;strokeColor=none;fillColor=none;align=center;verticalAlign=middle;whiteSpace=wrap;rounded=0;" parent="WIyWlLk6GJQsqaUBKTNV-1" vertex="1">
          <mxGeometry x="130" y="810" width="60" height="30" as="geometry" />
        </mxCell>
        <mxCell id="mI4eKcFdx7r7xV4IZFu3-17" value="" style="endArrow=classic;html=1;rounded=0;exitX=0.5;exitY=1;exitDx=0;exitDy=0;" parent="WIyWlLk6GJQsqaUBKTNV-1" source="mI4eKcFdx7r7xV4IZFu3-8" edge="1">
          <mxGeometry width="50" height="50" relative="1" as="geometry">
            <mxPoint x="410" y="580" as="sourcePoint" />
            <mxPoint x="160" y="660" as="targetPoint" />
          </mxGeometry>
        </mxCell>
        <mxCell id="mI4eKcFdx7r7xV4IZFu3-21" value="" style="rhombus;whiteSpace=wrap;html=1;" parent="WIyWlLk6GJQsqaUBKTNV-1" vertex="1">
          <mxGeometry x="100" y="905" width="120" height="120" as="geometry" />
        </mxCell>
        <mxCell id="mI4eKcFdx7r7xV4IZFu3-22" value="" style="endArrow=classic;html=1;rounded=0;exitX=0.5;exitY=1;exitDx=0;exitDy=0;entryX=0.5;entryY=0;entryDx=0;entryDy=0;" parent="WIyWlLk6GJQsqaUBKTNV-1" source="mI4eKcFdx7r7xV4IZFu3-15" target="mI4eKcFdx7r7xV4IZFu3-21" edge="1">
          <mxGeometry width="50" height="50" relative="1" as="geometry">
            <mxPoint x="340" y="915" as="sourcePoint" />
            <mxPoint x="390" y="865" as="targetPoint" />
          </mxGeometry>
        </mxCell>
        <mxCell id="mI4eKcFdx7r7xV4IZFu3-23" value="&lt;font style=&quot;font-size: 20px;&quot;&gt;i&amp;lt;n&lt;/font&gt;" style="text;html=1;strokeColor=none;fillColor=none;align=center;verticalAlign=middle;whiteSpace=wrap;rounded=0;" parent="WIyWlLk6GJQsqaUBKTNV-1" vertex="1">
          <mxGeometry x="135" y="950" width="60" height="30" as="geometry" />
        </mxCell>
        <mxCell id="mI4eKcFdx7r7xV4IZFu3-24" value="" style="rounded=0;whiteSpace=wrap;html=1;" parent="WIyWlLk6GJQsqaUBKTNV-1" vertex="1">
          <mxGeometry x="100" y="1075" width="120" height="60" as="geometry" />
        </mxCell>
        <mxCell id="mI4eKcFdx7r7xV4IZFu3-25" value="&lt;font style=&quot;font-size: 20px;&quot;&gt;Заполнение&amp;nbsp;&lt;br&gt;элементов&lt;/font&gt;" style="text;html=1;strokeColor=none;fillColor=none;align=center;verticalAlign=middle;whiteSpace=wrap;rounded=0;" parent="WIyWlLk6GJQsqaUBKTNV-1" vertex="1">
          <mxGeometry x="100" y="1080" width="120" height="50" as="geometry" />
        </mxCell>
        <mxCell id="mI4eKcFdx7r7xV4IZFu3-26" value="" style="endArrow=classic;html=1;rounded=0;exitX=0.5;exitY=1;exitDx=0;exitDy=0;entryX=0.5;entryY=0;entryDx=0;entryDy=0;" parent="WIyWlLk6GJQsqaUBKTNV-1" source="mI4eKcFdx7r7xV4IZFu3-21" target="mI4eKcFdx7r7xV4IZFu3-24" edge="1">
          <mxGeometry width="50" height="50" relative="1" as="geometry">
            <mxPoint x="340" y="1115" as="sourcePoint" />
            <mxPoint x="390" y="1065" as="targetPoint" />
          </mxGeometry>
        </mxCell>
        <mxCell id="mI4eKcFdx7r7xV4IZFu3-30" value="&lt;span style=&quot;font-size: 20px;&quot;&gt;Вывод элемента&lt;/span&gt;" style="text;html=1;strokeColor=none;fillColor=none;align=center;verticalAlign=middle;whiteSpace=wrap;rounded=0;" parent="WIyWlLk6GJQsqaUBKTNV-1" vertex="1">
          <mxGeometry x="110" y="1190" width="100" height="30" as="geometry" />
        </mxCell>
        <mxCell id="mI4eKcFdx7r7xV4IZFu3-34" value="" style="rounded=0;whiteSpace=wrap;html=1;" parent="WIyWlLk6GJQsqaUBKTNV-1" vertex="1">
          <mxGeometry x="100" y="210" width="120" height="60" as="geometry" />
        </mxCell>
        <mxCell id="mI4eKcFdx7r7xV4IZFu3-32" value="&lt;font style=&quot;font-size: 18px;&quot;&gt;Вывод размера массива n&lt;/font&gt;" style="text;html=1;strokeColor=none;fillColor=none;align=center;verticalAlign=middle;whiteSpace=wrap;rounded=0;" parent="WIyWlLk6GJQsqaUBKTNV-1" vertex="1">
          <mxGeometry x="106.25" y="665" width="107.5" height="55" as="geometry" />
        </mxCell>
        <mxCell id="mI4eKcFdx7r7xV4IZFu3-35" value="&lt;font style=&quot;font-size: 16px;&quot;&gt;Создание массива arr[] размера N&lt;/font&gt;" style="text;html=1;strokeColor=none;fillColor=none;align=center;verticalAlign=middle;whiteSpace=wrap;rounded=0;" parent="WIyWlLk6GJQsqaUBKTNV-1" vertex="1">
          <mxGeometry x="80" y="182.5" width="155" height="115" as="geometry" />
        </mxCell>
        <mxCell id="mI4eKcFdx7r7xV4IZFu3-36" value="" style="endArrow=classic;html=1;rounded=0;exitX=0.5;exitY=0.761;exitDx=0;exitDy=0;exitPerimeter=0;entryX=0.5;entryY=0;entryDx=0;entryDy=0;" parent="WIyWlLk6GJQsqaUBKTNV-1" source="mI4eKcFdx7r7xV4IZFu3-35" target="mI4eKcFdx7r7xV4IZFu3-4" edge="1">
          <mxGeometry width="50" height="50" relative="1" as="geometry">
            <mxPoint x="470" y="470" as="sourcePoint" />
            <mxPoint x="520" y="420" as="targetPoint" />
          </mxGeometry>
        </mxCell>
        <mxCell id="mI4eKcFdx7r7xV4IZFu3-37" value="" style="endArrow=classic;html=1;rounded=0;exitX=0.5;exitY=1;exitDx=0;exitDy=0;entryX=0.5;entryY=0;entryDx=0;entryDy=0;" parent="WIyWlLk6GJQsqaUBKTNV-1" source="mI4eKcFdx7r7xV4IZFu3-4" target="mI4eKcFdx7r7xV4IZFu3-8" edge="1">
          <mxGeometry width="50" height="50" relative="1" as="geometry">
            <mxPoint x="470" y="470" as="sourcePoint" />
            <mxPoint x="520" y="420" as="targetPoint" />
          </mxGeometry>
        </mxCell>
        <mxCell id="mI4eKcFdx7r7xV4IZFu3-38" value="" style="endArrow=classic;html=1;rounded=0;exitX=0.5;exitY=1;exitDx=0;exitDy=0;entryX=0.5;entryY=0;entryDx=0;entryDy=0;" parent="WIyWlLk6GJQsqaUBKTNV-1" source="mI4eKcFdx7r7xV4IZFu3-32" target="mI4eKcFdx7r7xV4IZFu3-15" edge="1">
          <mxGeometry width="50" height="50" relative="1" as="geometry">
            <mxPoint x="410" y="795" as="sourcePoint" />
            <mxPoint x="460" y="745" as="targetPoint" />
          </mxGeometry>
        </mxCell>
        <mxCell id="mI4eKcFdx7r7xV4IZFu3-39" value="" style="endArrow=classic;html=1;rounded=0;exitX=0.5;exitY=1;exitDx=0;exitDy=0;entryX=0.5;entryY=0;entryDx=0;entryDy=0;" parent="WIyWlLk6GJQsqaUBKTNV-1" source="mI4eKcFdx7r7xV4IZFu3-24" edge="1">
          <mxGeometry width="50" height="50" relative="1" as="geometry">
            <mxPoint x="410" y="1115" as="sourcePoint" />
            <mxPoint x="160" y="1175" as="targetPoint" />
          </mxGeometry>
        </mxCell>
        <mxCell id="mI4eKcFdx7r7xV4IZFu3-40" value="" style="rounded=0;whiteSpace=wrap;html=1;" parent="WIyWlLk6GJQsqaUBKTNV-1" vertex="1">
          <mxGeometry x="100" y="1275" width="120" height="60" as="geometry" />
        </mxCell>
        <mxCell id="mI4eKcFdx7r7xV4IZFu3-41" value="&lt;font style=&quot;font-size: 20px;&quot;&gt;i++&lt;/font&gt;" style="text;html=1;strokeColor=none;fillColor=none;align=center;verticalAlign=middle;whiteSpace=wrap;rounded=0;" parent="WIyWlLk6GJQsqaUBKTNV-1" vertex="1">
          <mxGeometry x="130" y="1290" width="60" height="30" as="geometry" />
        </mxCell>
        <mxCell id="mI4eKcFdx7r7xV4IZFu3-42" value="" style="endArrow=classic;html=1;rounded=0;exitX=0.5;exitY=1;exitDx=0;exitDy=0;" parent="WIyWlLk6GJQsqaUBKTNV-1" target="mI4eKcFdx7r7xV4IZFu3-40" edge="1">
          <mxGeometry width="50" height="50" relative="1" as="geometry">
            <mxPoint x="160" y="1235" as="sourcePoint" />
            <mxPoint x="460" y="1185" as="targetPoint" />
          </mxGeometry>
        </mxCell>
        <mxCell id="mI4eKcFdx7r7xV4IZFu3-43" value="" style="endArrow=classic;html=1;rounded=0;exitX=0.5;exitY=1;exitDx=0;exitDy=0;" parent="WIyWlLk6GJQsqaUBKTNV-1" source="mI4eKcFdx7r7xV4IZFu3-40" edge="1">
          <mxGeometry width="50" height="50" relative="1" as="geometry">
            <mxPoint x="250" y="1185" as="sourcePoint" />
            <mxPoint x="160" y="887.5" as="targetPoint" />
            <Array as="points">
              <mxPoint x="160" y="1365" />
              <mxPoint x="40" y="1365" />
              <mxPoint x="40" y="885" />
            </Array>
          </mxGeometry>
        </mxCell>
        <mxCell id="mI4eKcFdx7r7xV4IZFu3-44" value="" style="ellipse;whiteSpace=wrap;html=1;aspect=fixed;" parent="WIyWlLk6GJQsqaUBKTNV-1" vertex="1">
          <mxGeometry x="120" y="1405" width="80" height="80" as="geometry" />
        </mxCell>
        <mxCell id="mI4eKcFdx7r7xV4IZFu3-45" value="&lt;font style=&quot;font-size: 20px;&quot;&gt;1&lt;/font&gt;" style="text;html=1;strokeColor=none;fillColor=none;align=center;verticalAlign=middle;whiteSpace=wrap;rounded=0;" parent="WIyWlLk6GJQsqaUBKTNV-1" vertex="1">
          <mxGeometry x="130" y="1430" width="60" height="30" as="geometry" />
        </mxCell>
        <mxCell id="mI4eKcFdx7r7xV4IZFu3-46" value="" style="endArrow=classic;html=1;rounded=0;exitX=1;exitY=0.5;exitDx=0;exitDy=0;entryX=1;entryY=0.5;entryDx=0;entryDy=0;" parent="WIyWlLk6GJQsqaUBKTNV-1" source="mI4eKcFdx7r7xV4IZFu3-21" target="mI4eKcFdx7r7xV4IZFu3-44" edge="1">
          <mxGeometry width="50" height="50" relative="1" as="geometry">
            <mxPoint x="250" y="1235" as="sourcePoint" />
            <mxPoint x="300" y="1185" as="targetPoint" />
            <Array as="points">
              <mxPoint x="320" y="965" />
              <mxPoint x="320" y="1445" />
            </Array>
          </mxGeometry>
        </mxCell>
        <mxCell id="mI4eKcFdx7r7xV4IZFu3-49" value="" style="ellipse;whiteSpace=wrap;html=1;aspect=fixed;" parent="WIyWlLk6GJQsqaUBKTNV-1" vertex="1">
          <mxGeometry x="690" y="90" width="80" height="80" as="geometry" />
        </mxCell>
        <mxCell id="mI4eKcFdx7r7xV4IZFu3-50" value="&lt;font style=&quot;font-size: 20px;&quot;&gt;1&lt;br&gt;&lt;/font&gt;" style="text;html=1;strokeColor=none;fillColor=none;align=center;verticalAlign=middle;whiteSpace=wrap;rounded=0;" parent="WIyWlLk6GJQsqaUBKTNV-1" vertex="1">
          <mxGeometry x="700" y="115" width="60" height="30" as="geometry" />
        </mxCell>
        <mxCell id="mI4eKcFdx7r7xV4IZFu3-51" value="" style="rounded=0;whiteSpace=wrap;html=1;" parent="WIyWlLk6GJQsqaUBKTNV-1" vertex="1">
          <mxGeometry x="670" y="220" width="120" height="60" as="geometry" />
        </mxCell>
        <mxCell id="mI4eKcFdx7r7xV4IZFu3-52" value="&lt;font style=&quot;font-size: 20px;&quot;&gt;s=0&lt;/font&gt;" style="text;html=1;strokeColor=none;fillColor=none;align=center;verticalAlign=middle;whiteSpace=wrap;rounded=0;" parent="WIyWlLk6GJQsqaUBKTNV-1" vertex="1">
          <mxGeometry x="700" y="235" width="60" height="30" as="geometry" />
        </mxCell>
        <mxCell id="mI4eKcFdx7r7xV4IZFu3-53" value="" style="rounded=0;whiteSpace=wrap;html=1;" parent="WIyWlLk6GJQsqaUBKTNV-1" vertex="1">
          <mxGeometry x="670" y="320" width="120" height="60" as="geometry" />
        </mxCell>
        <mxCell id="mI4eKcFdx7r7xV4IZFu3-54" value="&lt;font style=&quot;font-size: 20px;&quot;&gt;i=0&lt;/font&gt;" style="text;html=1;strokeColor=none;fillColor=none;align=center;verticalAlign=middle;whiteSpace=wrap;rounded=0;" parent="WIyWlLk6GJQsqaUBKTNV-1" vertex="1">
          <mxGeometry x="700" y="335" width="60" height="30" as="geometry" />
        </mxCell>
        <mxCell id="mI4eKcFdx7r7xV4IZFu3-55" value="" style="endArrow=classic;html=1;rounded=0;exitX=0.5;exitY=1;exitDx=0;exitDy=0;entryX=0.5;entryY=0;entryDx=0;entryDy=0;" parent="WIyWlLk6GJQsqaUBKTNV-1" source="mI4eKcFdx7r7xV4IZFu3-49" target="mI4eKcFdx7r7xV4IZFu3-51" edge="1">
          <mxGeometry width="50" height="50" relative="1" as="geometry">
            <mxPoint x="580" y="440" as="sourcePoint" />
            <mxPoint x="630" y="390" as="targetPoint" />
          </mxGeometry>
        </mxCell>
        <mxCell id="mI4eKcFdx7r7xV4IZFu3-56" value="" style="endArrow=classic;html=1;rounded=0;exitX=0.5;exitY=1;exitDx=0;exitDy=0;entryX=0.5;entryY=0;entryDx=0;entryDy=0;" parent="WIyWlLk6GJQsqaUBKTNV-1" source="mI4eKcFdx7r7xV4IZFu3-51" target="mI4eKcFdx7r7xV4IZFu3-53" edge="1">
          <mxGeometry width="50" height="50" relative="1" as="geometry">
            <mxPoint x="580" y="440" as="sourcePoint" />
            <mxPoint x="630" y="390" as="targetPoint" />
          </mxGeometry>
        </mxCell>
        <mxCell id="mI4eKcFdx7r7xV4IZFu3-59" value="" style="rhombus;whiteSpace=wrap;html=1;" parent="WIyWlLk6GJQsqaUBKTNV-1" vertex="1">
          <mxGeometry x="670" y="430" width="120" height="120" as="geometry" />
        </mxCell>
        <mxCell id="mI4eKcFdx7r7xV4IZFu3-60" value="&lt;font style=&quot;font-size: 20px;&quot;&gt;i&amp;lt;n&lt;/font&gt;" style="text;html=1;strokeColor=none;fillColor=none;align=center;verticalAlign=middle;whiteSpace=wrap;rounded=0;" parent="WIyWlLk6GJQsqaUBKTNV-1" vertex="1">
          <mxGeometry x="705" y="475" width="60" height="30" as="geometry" />
        </mxCell>
        <mxCell id="mI4eKcFdx7r7xV4IZFu3-61" value="" style="endArrow=classic;html=1;rounded=0;exitX=0.5;exitY=1;exitDx=0;exitDy=0;entryX=0.5;entryY=0;entryDx=0;entryDy=0;" parent="WIyWlLk6GJQsqaUBKTNV-1" source="mI4eKcFdx7r7xV4IZFu3-53" target="mI4eKcFdx7r7xV4IZFu3-59" edge="1">
          <mxGeometry width="50" height="50" relative="1" as="geometry">
            <mxPoint x="590" y="540" as="sourcePoint" />
            <mxPoint x="640" y="490" as="targetPoint" />
          </mxGeometry>
        </mxCell>
        <mxCell id="mI4eKcFdx7r7xV4IZFu3-62" value="" style="rounded=0;whiteSpace=wrap;html=1;" parent="WIyWlLk6GJQsqaUBKTNV-1" vertex="1">
          <mxGeometry x="670" y="600" width="120" height="60" as="geometry" />
        </mxCell>
        <mxCell id="mI4eKcFdx7r7xV4IZFu3-63" value="&lt;font style=&quot;font-size: 20px;&quot;&gt;S+=arr[i]*arr[i]&lt;/font&gt;" style="text;html=1;strokeColor=none;fillColor=none;align=center;verticalAlign=middle;whiteSpace=wrap;rounded=0;" parent="WIyWlLk6GJQsqaUBKTNV-1" vertex="1">
          <mxGeometry x="670" y="597.5" width="120" height="65" as="geometry" />
        </mxCell>
        <mxCell id="mI4eKcFdx7r7xV4IZFu3-66" value="" style="shape=parallelogram;perimeter=parallelogramPerimeter;whiteSpace=wrap;html=1;fixedSize=1;" parent="WIyWlLk6GJQsqaUBKTNV-1" vertex="1">
          <mxGeometry x="670" y="730" width="120" height="60" as="geometry" />
        </mxCell>
        <mxCell id="mI4eKcFdx7r7xV4IZFu3-67" value="&lt;font style=&quot;font-size: 20px;&quot;&gt;Вывод S/n&lt;/font&gt;" style="text;html=1;strokeColor=none;fillColor=none;align=center;verticalAlign=middle;whiteSpace=wrap;rounded=0;" parent="WIyWlLk6GJQsqaUBKTNV-1" vertex="1">
          <mxGeometry x="700" y="745" width="60" height="30" as="geometry" />
        </mxCell>
        <object label="" id="mI4eKcFdx7r7xV4IZFu3-69">
          <mxCell style="ellipse;whiteSpace=wrap;html=1;fillColor=none;" parent="WIyWlLk6GJQsqaUBKTNV-1" vertex="1">
            <mxGeometry x="655" y="850" width="150" height="80" as="geometry" />
          </mxCell>
        </object>
        <mxCell id="mI4eKcFdx7r7xV4IZFu3-70" value="&lt;span style=&quot;font-size: 20px;&quot;&gt;К&lt;/span&gt;" style="text;html=1;strokeColor=none;fillColor=none;align=center;verticalAlign=middle;whiteSpace=wrap;rounded=0;" parent="WIyWlLk6GJQsqaUBKTNV-1" vertex="1">
          <mxGeometry x="697.5" y="872.5" width="65" height="35" as="geometry" />
        </mxCell>
        <mxCell id="mI4eKcFdx7r7xV4IZFu3-71" value="" style="endArrow=classic;html=1;rounded=0;exitX=0.5;exitY=1;exitDx=0;exitDy=0;entryX=0.5;entryY=0;entryDx=0;entryDy=0;" parent="WIyWlLk6GJQsqaUBKTNV-1" source="mI4eKcFdx7r7xV4IZFu3-59" target="mI4eKcFdx7r7xV4IZFu3-63" edge="1">
          <mxGeometry width="50" height="50" relative="1" as="geometry">
            <mxPoint x="510" y="450" as="sourcePoint" />
            <mxPoint x="560" y="400" as="targetPoint" />
          </mxGeometry>
        </mxCell>
        <mxCell id="mI4eKcFdx7r7xV4IZFu3-73" value="" style="endArrow=classic;html=1;rounded=0;exitX=0.5;exitY=1;exitDx=0;exitDy=0;entryX=0.5;entryY=0;entryDx=0;entryDy=0;" parent="WIyWlLk6GJQsqaUBKTNV-1" source="mI4eKcFdx7r7xV4IZFu3-63" target="mI4eKcFdx7r7xV4IZFu3-66" edge="1">
          <mxGeometry width="50" height="50" relative="1" as="geometry">
            <mxPoint x="510" y="690" as="sourcePoint" />
            <mxPoint x="560" y="640" as="targetPoint" />
          </mxGeometry>
        </mxCell>
        <mxCell id="mI4eKcFdx7r7xV4IZFu3-74" value="" style="endArrow=classic;html=1;rounded=0;exitX=0.5;exitY=1;exitDx=0;exitDy=0;entryX=0.5;entryY=0;entryDx=0;entryDy=0;" parent="WIyWlLk6GJQsqaUBKTNV-1" source="mI4eKcFdx7r7xV4IZFu3-66" target="mI4eKcFdx7r7xV4IZFu3-69" edge="1">
          <mxGeometry width="50" height="50" relative="1" as="geometry">
            <mxPoint x="510" y="820" as="sourcePoint" />
            <mxPoint x="560" y="770" as="targetPoint" />
          </mxGeometry>
        </mxCell>
        <mxCell id="mI4eKcFdx7r7xV4IZFu3-75" value="" style="endArrow=classic;html=1;rounded=0;exitX=0.5;exitY=1;exitDx=0;exitDy=0;entryX=0.547;entryY=-0.008;entryDx=0;entryDy=0;entryPerimeter=0;" parent="WIyWlLk6GJQsqaUBKTNV-1" source="mI4eKcFdx7r7xV4IZFu3-0" target="mI4eKcFdx7r7xV4IZFu3-34" edge="1">
          <mxGeometry width="50" height="50" relative="1" as="geometry">
            <mxPoint x="310" y="300" as="sourcePoint" />
            <mxPoint x="320" y="183" as="targetPoint" />
          </mxGeometry>
        </mxCell>
        <mxCell id="-l8HpETwXqgdx6R7hyDg-0" value="&lt;font style=&quot;font-size: 14px;&quot;&gt;нет&lt;/font&gt;" style="text;html=1;strokeColor=none;fillColor=none;align=center;verticalAlign=middle;whiteSpace=wrap;rounded=0;" parent="WIyWlLk6GJQsqaUBKTNV-1" vertex="1">
          <mxGeometry x="95" y="600" width="60" height="30" as="geometry" />
        </mxCell>
        <mxCell id="-l8HpETwXqgdx6R7hyDg-1" value="&lt;font style=&quot;font-size: 14px;&quot;&gt;да&lt;/font&gt;" style="text;html=1;strokeColor=none;fillColor=none;align=center;verticalAlign=middle;whiteSpace=wrap;rounded=0;" parent="WIyWlLk6GJQsqaUBKTNV-1" vertex="1">
          <mxGeometry x="260" y="480" width="60" height="30" as="geometry" />
        </mxCell>
      </root>
    </mxGraphModel>
  </diagram>
</mxfile>
